<svg xmlns="http://www.w3.org/2000/svg" viewBox="0 0 720 400" style="font-family:Helvetica,Arial,sans-serif" xmlns:c2pa="http://c2pa.org/manifest"><metadata><c2pa:manifest>AAAWgmp1bWIAAAAeanVtZGMycGEAEQAQgAAAqgA4m3EDYzJwYQAAABZcanVtYgAAAEdqdW1kYzJtYQARABCAAACqADibcQN1cm46YzJwYTowNWMzOTNmZC0xMGZmLTQ0YTAtODY4NS0zNTBhOTkzYzlhOWQAAAADl2p1bWIAAAApanVtZGMyYXMAEQAQgAAAqgA4m3EDYzJwYS5hc3NlcnRpb25zAAAAALxqdW1iAAAARGp1bWRjYm9yABEAEIAAAKoAOJtxE2MycGEuaW5ncmVkaWVudC52MwAAAAAYYzJzaJOsyUNg/vsB89cI6lleHRkAAABwY2JvcqNpZGM6Zm9ybWF0bWltYWdlL3N2Zyt4bWxqaW5zdGFuY2VJRHgseG1wOmlpZDo1MTYyM2M3ZS1mOWE0LTRhOWItYTAzMS02YzlkZWY1MWJiNjlscmVsYXRpb25zaGlwaHBhcmVudE9mAAAB4mp1bWIAAABBanVtZGNib3IAEQAQgAAAqgA4m3ETYzJwYS5hY3Rpb25zLnYyAAAAABhjMnNoLWabxQ2DWSMx+wm3o1X4SQAAAZljYm9yomdhY3Rpb25zgqJmYWN0aW9ua2MycGEub3BlbmVkanBhcmFtZXRlcnOha2luZ3JlZGllbnRzgaJjdXJseC1zZWxmI2p1bWJmPWMycGEuYXNzZXJ0aW9ucy9jMnBhLmluZ3JlZGllbnQudjNkaGFzaFggKm8oUorxMZwP3EQcAFHxcr56zvpD8cXQAHMoYlMvymWkZmFjdGlvbngdY29tLmFudGhyb3BpYy5jbGF1ZGUucHJvdmlkZWRqcGFyYW1ldGVyc6F4H2NvbS5hbnRocm9waWMub3JpZ2luLWNvbmZpZGVuY2VndW5rbm93bmtkZXNjcmlwdGlvbnhmQ2xhdWRlIHByb3ZpZGVkIHRoaXMgZmlsZSBhdCB0aGUgcmVxdWVzdCBvZiBhIHVzZXIgYW5kIG1heSBoYXZlIGNyZWF0ZWQgb3IgbW9kaWZpZWQgdGhlIGZpbGUgY29udGVudHMubXNvZnR3YXJlQWdlbnShZG5hbWVmQ2xhdWRlcmFsbEFjdGlvbnNJbmNsdWRlZPUAAADIanVtYgAAAEBqdW1kY2JvcgARABCAAACqADibcRNjMnBhLmhhc2guZGF0YQAAAAAYYzJzaEE7jlgyZm48Y9PFk3LlEOEAAACAY2JvcqVjYWxnZnNoYTI1NmNwYWRNAAAAAAAAAAAAAAAAAGRoYXNoWCCs/BR6zQBWDOTw02t2bvkNqXsmSXFyzz+qR2JyjmHQ7GRuYW1lbmp1bWJmIG1hbmlmZXN0amV4Y2x1c2lvbnOBomVzdGFydBisZmxlbmd0aBkeBAAAAj5qdW1iAAAAJ2p1bWRjMmNsABEAEIAAAKoAOJtxA2MycGEuY2xhaW0udjIAAAACD2Nib3KlY2FsZ2ZzaGEyNTZpc2lnbmF0dXJleE1zZWxmI2p1bWJmPS9jMnBhL3VybjpjMnBhOjA1YzM5M2ZkLTEwZmYtNDRhMC04Njg1LTM1MGE5OTNjOWE5ZC9jMnBhLnNpZ25hdHVyZWppbnN0YW5jZUlEeCx4bXA6aWlkOjFmN2FkZGFkLTNiM2EtNDA5YS04MTMwLTI4NDRmZDAxYTgwN3JjcmVhdGVkX2Fzc2VydGlvbnODomN1cmx4LXNlbGYjanVtYmY9YzJwYS5hc3NlcnRpb25zL2MycGEuaW5ncmVkaWVudC52M2RoYXNoWCAqbyhSivExnA/cRBwAUfFyvnrO+kPxxdAAcyhiUy/KZaJjdXJseCpzZWxmI2p1bWJmPWMycGEuYXNzZXJ0aW9ucy9jMnBhLmFjdGlvbnMudjJkaGFzaFggz6fWQfionv3ejqNRdAOeYqDzWHIhfB2ssrrI68v+vuuiY3VybHgpc2VsZiNqdW1iZj1jMnBhLmFzc2VydGlvbnMvYzJwYS5oYXNoLmRhdGFkaGFzaFggF2cpo0ARn8g9CT3eGcIlVOlUZg3a+0OzZdBzozc5/nl0Y2xhaW1fZ2VuZXJhdG9yX2luZm+jZG5hbWVvQW50aHJvcGljIEZpbGVzZ3ZlcnNpb25lMS4wLjBrc3BlY1ZlcnNpb25lMi40LjAAABA4anVtYgAAAChqdW1kYzJjcwARABCAAACqADibcQNjMnBhLnNpZ25hdHVyZQAAABAIY2JvctKEWQISogEmGCFZAgowggIGMIIBjaADAgECAhRA5aAK7sI50L64g/oGQgU9Z1UTADAKBggqhkjOPQQDAzBJMRcwFQYDVQQKEw5BbnRocm9waWMsIFBCQzEuMCwGA1UEAxMlQW50aHJvcGljIENvbnRlbnQgQ3JlZGVudGlhbHMgUm9vdCBDQTAeFw0yNjA4MDcxODQzNTZaFw0yODA4MDYxOTQzNTZaMEQxFzAVBgNVBAoTDkFudGhyb3BpYywgUEJDMSkwJwYDVQQDEyBBbnRocm9waWMgQ2xhdWRlIENvbnRlbnQgU2lnbmluZzBZMBMGByqGSM49AgEGCCqGSM49AwEHA0IABJh6CmvLUBgFFNU0vUKlOVtE6djd17L5SuwX0LemFisBM3dkd/3cyjxFA3Qo5S46fX0/ihY0VZ7mfb9KF703t5OjWDBWMA4GA1UdDwEB/wQEAwIHgDAVBgNVHSUEDjAMBgorBgEEAYPoXgIBMAwGA1UdEwEB/wQCMAAwHwYDVR0jBBgwFoAUzlHiBIFOZFsj+OPEz5o+nMHXXMIwCgYIKoZIzj0EAwMDZwAwZAIwMXMdFJ4BetLLVY7ORuE9noqbbAZOZn/aArXyTwFAZfKrPzxF2vPoJNf1+UCdg1XGAjBwX1zd9WGqYkqmL5SFqw1QySjr1zJfpJM9+1rdDwSPLMOPOjKuiXjoU/pUUeG9RwmhY3BhZFkNngAAAAAAAAAAAAAAAAAAAAAAAAAAAAAAAAAAAAAAAAAAAAAAAAAAAAAAAAAAAAAAAAAAAAAAAAAAAAAAAAAAAAAAAAAAAAAAAAAAAAAAAAAAAAAAAAAAAAAAAAAAAAAAAAAAAAAAAAAAAAAAAAAAAAAAAAAAAAAAAAAAAAAAAAAAAAAAAAAAAAAAAAAAAAAAAAAAAAAAAAAAAAAAAAAAAAAAAAAAAAAAAAAAAAAAAAAAAAAAAAAAAAAAAAAAAAAAAAAAAAAAAAAAAAAAAAAAAAAAAAAAAAAAAAAAAAAAAAAAAAAAAAAAAAAAAAAAAAAAAAAAAAAAAAAAAAAAAAAAAAAAAAAAAAAAAAAAAAAAAAAAAAAAAAAAAAAAAAAAAAAAAAAAAAAAAAAAAAAAAAAAAAAAAAAAAAAAAAAAAAAAAAAAAAAAAAAAAAAAAAAAAAAAAAAAAAAAAAAAAAAAAAAAAAAAAAAAAAAAAAAAAAAAAAAAAAAAAAAAAAAAAAAAAAAAAAAAAAAAAAAAAAAAAAAAAAAAAAAAAAAAAAAAAAAAAAAAAAAAAAAAAAAAAAAAAAAAAAAAAAAAAAAAAAAAAAAAAAAAAAAAAAAAAAAAAAAAAAAAAAAAAAAAAAAAAAAAAAAAAAAAAAAAAAAAAAAAAAAAAAAAAAAAAAAAAAAAAAAAAAAAAAAAAAAAAAAAAAAAAAAAAAAAAAAAAAAAAAAAAAAAAAAAAAAAAAAAAAAAAAAAAAAAAAAAAAAAAAAAAAAAAAAAAAAAAAAAAAAAAAAAAAAAAAAAAAAAAAAAAAAAAAAAAAAAAAAAAAAAAAAAAAAAAAAAAAAAAAAAAAAAAAAAAAAAAAAAAAAAAAAAAAAAAAAAAAAAAAAAAAAAAAAAAAAAAAAAAAAAAAAAAAAAAAAAAAAAAAAAAAAAAAAAAAAAAAAAAAAAAAAAAAAAAAAAAAAAAAAAAAAAAAAAAAAAAAAAAAAAAAAAAAAAAAAAAAAAAAAAAAAAAAAAAAAAAAAAAAAAAAAAAAAAAAAAAAAAAAAAAAAAAAAAAAAAAAAAAAAAAAAAAAAAAAAAAAAAAAAAAAAAAAAAAAAAAAAAAAAAAAAAAAAAAAAAAAAAAAAAAAAAAAAAAAAAAAAAAAAAAAAAAAAAAAAAAAAAAAAAAAAAAAAAAAAAAAAAAAAAAAAAAAAAAAAAAAAAAAAAAAAAAAAAAAAAAAAAAAAAAAAAAAAAAAAAAAAAAAAAAAAAAAAAAAAAAAAAAAAAAAAAAAAAAAAAAAAAAAAAAAAAAAAAAAAAAAAAAAAAAAAAAAAAAAAAAAAAAAAAAAAAAAAAAAAAAAAAAAAAAAAAAAAAAAAAAAAAAAAAAAAAAAAAAAAAAAAAAAAAAAAAAAAAAAAAAAAAAAAAAAAAAAAAAAAAAAAAAAAAAAAAAAAAAAAAAAAAAAAAAAAAAAAAAAAAAAAAAAAAAAAAAAAAAAAAAAAAAAAAAAAAAAAAAAAAAAAAAAAAAAAAAAAAAAAAAAAAAAAAAAAAAAAAAAAAAAAAAAAAAAAAAAAAAAAAAAAAAAAAAAAAAAAAAAAAAAAAAAAAAAAAAAAAAAAAAAAAAAAAAAAAAAAAAAAAAAAAAAAAAAAAAAAAAAAAAAAAAAAAAAAAAAAAAAAAAAAAAAAAAAAAAAAAAAAAAAAAAAAAAAAAAAAAAAAAAAAAAAAAAAAAAAAAAAAAAAAAAAAAAAAAAAAAAAAAAAAAAAAAAAAAAAAAAAAAAAAAAAAAAAAAAAAAAAAAAAAAAAAAAAAAAAAAAAAAAAAAAAAAAAAAAAAAAAAAAAAAAAAAAAAAAAAAAAAAAAAAAAAAAAAAAAAAAAAAAAAAAAAAAAAAAAAAAAAAAAAAAAAAAAAAAAAAAAAAAAAAAAAAAAAAAAAAAAAAAAAAAAAAAAAAAAAAAAAAAAAAAAAAAAAAAAAAAAAAAAAAAAAAAAAAAAAAAAAAAAAAAAAAAAAAAAAAAAAAAAAAAAAAAAAAAAAAAAAAAAAAAAAAAAAAAAAAAAAAAAAAAAAAAAAAAAAAAAAAAAAAAAAAAAAAAAAAAAAAAAAAAAAAAAAAAAAAAAAAAAAAAAAAAAAAAAAAAAAAAAAAAAAAAAAAAAAAAAAAAAAAAAAAAAAAAAAAAAAAAAAAAAAAAAAAAAAAAAAAAAAAAAAAAAAAAAAAAAAAAAAAAAAAAAAAAAAAAAAAAAAAAAAAAAAAAAAAAAAAAAAAAAAAAAAAAAAAAAAAAAAAAAAAAAAAAAAAAAAAAAAAAAAAAAAAAAAAAAAAAAAAAAAAAAAAAAAAAAAAAAAAAAAAAAAAAAAAAAAAAAAAAAAAAAAAAAAAAAAAAAAAAAAAAAAAAAAAAAAAAAAAAAAAAAAAAAAAAAAAAAAAAAAAAAAAAAAAAAAAAAAAAAAAAAAAAAAAAAAAAAAAAAAAAAAAAAAAAAAAAAAAAAAAAAAAAAAAAAAAAAAAAAAAAAAAAAAAAAAAAAAAAAAAAAAAAAAAAAAAAAAAAAAAAAAAAAAAAAAAAAAAAAAAAAAAAAAAAAAAAAAAAAAAAAAAAAAAAAAAAAAAAAAAAAAAAAAAAAAAAAAAAAAAAAAAAAAAAAAAAAAAAAAAAAAAAAAAAAAAAAAAAAAAAAAAAAAAAAAAAAAAAAAAAAAAAAAAAAAAAAAAAAAAAAAAAAAAAAAAAAAAAAAAAAAAAAAAAAAAAAAAAAAAAAAAAAAAAAAAAAAAAAAAAAAAAAAAAAAAAAAAAAAAAAAAAAAAAAAAAAAAAAAAAAAAAAAAAAAAAAAAAAAAAAAAAAAAAAAAAAAAAAAAAAAAAAAAAAAAAAAAAAAAAAAAAAAAAAAAAAAAAAAAAAAAAAAAAAAAAAAAAAAAAAAAAAAAAAAAAAAAAAAAAAAAAAAAAAAAAAAAAAAAAAAAAAAAAAAAAAAAAAAAAAAAAAAAAAAAAAAAAAAAAAAAAAAAAAAAAAAAAAAAAAAAAAAAAAAAAAAAAAAAAAAAAAAAAAAAAAAAAAAAAAAAAAAAAAAAAAAAAAAAAAAAAAAAAAAAAAAAAAAAAAAAAAAAAAAAAAAAAAAAAAAAAAAAAAAAAAAAAAAAAAAAAAAAAAAAAAAAAAAAAAAAAAAAAAAAAAAAAAAAAAAAAAAAAAAAAAAAAAAAAAAAAAAAAAAAAAAAAAAAAAAAAAAAAAAAAAAAAAAAAAAAAAAAAAAAAAAAAAAAAAAAAAAAAAAAAAAAAAAAAAAAAAAAAAAAAAAAAAAAAAAAAAAAAAAAAAAAAAAAAAAAAAAAAAAAAAAAAAAAAAAAAAAAAAAAAAAAAAAAAAAAAAAAAAAAAAAAAAAAAAAAAAAAAAAAAAAAAAAAAAAAAAAAAAAAAAAAAAAAAAAAAAAAAAAAAAAAAAAAAAAAAAAAAAAAAAAAAAAAAAAAAAAAAAAAAAAAAAAAAAAAAAAAAAAAAAAAAAAAAAAAAAAAAAAAAAAAAAAAAAAAAAAAAAAAAAAAAAAAAAAAAAAAAAAAAAAAAAAAAAAAAAAAAAAAAAAAAAAAAAAAAAAAAAAAAAAAAAAAAAAAAAAAAAAAAAAAAAAAAAAAAAAAAAAAAAAAAAAAAAAAAAAAAAAAAAAAAAAAAAAAAAAAAAAAAAAAAAAAAAAAAAAAAAAAAAAAAAAAAAAAAAAAAAAAAAAAAAAAAAAAAAAAAAAAAAAAAAAAAAAAAAAAAAAAAAAAAAAAAAAAAAAAAAAAAAAAAAAAAAAAAAAAAAAAAAAAAAAAAAAAAAAAAAAAAAAAAAAAAAAAAAAAAAAAAAAAAAAAAAAAAAAAAAAAAAAAAAAAAAAAAAAAAAAAAAAAAAAAAAAAAAAAAAAAAAAAAAAAAAAAAAAAAAAAAAAAAAAAAAAAAAAAAAAAAAAAAAAAAAAAAAAAAAAAAAAAAAAAAAAAAAAAAAAAAAAAAAAAAAAAAAAAAAAAAAAAAAAAAAAAAAAAAAAAAAAAAAAAAAAAAAAAAAAAAAAAAAAAAAAAAAAAAAAAAAAAAAAAAAAAAAAAAAAAAAAAAAAAAAAAAAAAAAAAAAAAAAAAAAAAAAAAAAAAAAAAAAAAAAAAAAAAAAAAAAAAAAAAAAAAAAAAAAAAAAAAAAAAAAAAAAAAAAAAAAAAAAAAAAAAAAAAAAAAAAAAAAAAAAAAAAAAAAAAAAAAAAAAAAAAAAAAAAAAAAAAAAAAAAAAAAAAAAAAAAAAAAAAAAAAAAAAAAAAAAAAAAAAAAAAAAAAAAAAAAAAAAAAAAAAAAAAAAAAAAAAAAAAAAAAAAAAAAAAAAAAAAAAAAAAAAAAAAAAAAAAAAAAAAAAAAAAAAAAAAAAAAAAAAAAAAAAAAAAAAAAAAAAAAAAAAAAAAAAAAAAAAAAAAAAAAAAAAAAAAAAAAAAAAAAAAAAAAAAAAAAAAAAAAAAAAAAAAAAAAAAAAAAAAAAAAAAAAAAAAAAAAAAAAAAAAAAAAAAAAAAAAAAAAAAAAAAAAAAAAAAAAAAAAAAAAAAAAAAAAAAAAAAAAAAAAAAAAAAAAAAAAAAAAAAAAAAAAAAAAAAAAAAAAAAAAAAAAAAAAAAAAAAAAAAAAAAAAAAAAAAAAAAAAAAAAAAAAAAAAAAAAAAAAAAAAAAAAAAAAAAAAAAAAAAAAAAAPZYQMbMhM2WRvMeH0L3XdrOJ5/SjY1A79MEjry9ZgYPNr/j7TcBD5ZlgYn5IdQUspupSoT+32MVg2oJXju6H2mwWDQ=</c2pa:manifest></metadata><rect width="720" height="400" rx="10" fill="#0b1220"/><circle cx="233" cy="33" r="1.1" fill="#fff" opacity="0.27"/><circle cx="591" cy="21" r="1.1" fill="#fff" opacity="0.28"/><circle cx="365" cy="8" r="0.8" fill="#fff" opacity="0.44"/><circle cx="173" cy="121" r="0.6" fill="#fff" opacity="0.62"/><circle cx="89" cy="49" r="1.1" fill="#fff" opacity="0.51"/><circle cx="45" cy="129" r="0.6" fill="#fff" opacity="0.69"/><circle cx="34" cy="189" r="0.8" fill="#fff" opacity="0.44"/><circle cx="389" cy="126" r="1.1" fill="#fff" opacity="0.62"/><circle cx="130" cy="128" r="1.1" fill="#fff" opacity="0.33"/><circle cx="70" cy="157" r="1.1" fill="#fff" opacity="0.28"/><circle cx="148" cy="150" r="0.8" fill="#fff" opacity="0.60"/><circle cx="335" cy="203" r="0.8" fill="#fff" opacity="0.38"/><circle cx="572" cy="154" r="0.6" fill="#fff" opacity="0.29"/><circle cx="216" cy="109" r="0.8" fill="#fff" opacity="0.58"/><circle cx="207" cy="216" r="0.6" fill="#fff" opacity="0.48"/><circle cx="119" cy="75" r="0.8" fill="#fff" opacity="0.44"/><circle cx="693" cy="17" r="1.1" fill="#fff" opacity="0.51"/><circle cx="630" cy="69" r="1.1" fill="#fff" opacity="0.41"/><circle cx="358" cy="175" r="0.6" fill="#fff" opacity="0.63"/><circle cx="680" cy="104" r="1.1" fill="#fff" opacity="0.28"/><circle cx="526" cy="68" r="1.1" fill="#fff" opacity="0.70"/><circle cx="592" cy="63" r="0.8" fill="#fff" opacity="0.65"/><circle cx="250" cy="207" r="0.8" fill="#fff" opacity="0.33"/><circle cx="84" cy="13" r="0.8" fill="#fff" opacity="0.31"/><circle cx="178" cy="86" r="0.8" fill="#fff" opacity="0.29"/><circle cx="323" cy="121" r="0.6" fill="#fff" opacity="0.62"/><circle cx="622" cy="61" r="0.8" fill="#fff" opacity="0.69"/><circle cx="492" cy="84" r="0.6" fill="#fff" opacity="0.32"/><circle cx="127" cy="51" r="0.6" fill="#fff" opacity="0.26"/><circle cx="598" cy="40" r="0.8" fill="#fff" opacity="0.25"/><circle cx="302" cy="81" r="1.1" fill="#fff" opacity="0.39"/><circle cx="90" cy="189" r="1.1" fill="#fff" opacity="0.54"/><circle cx="533" cy="100" r="1.1" fill="#fff" opacity="0.61"/><circle cx="283" cy="88" r="0.6" fill="#fff" opacity="0.47"/><circle cx="288" cy="42" r="0.6" fill="#fff" opacity="0.45"/><circle cx="79" cy="132" r="0.6" fill="#fff" opacity="0.25"/><circle cx="109" cy="22" r="0.8" fill="#fff" opacity="0.53"/><circle cx="51" cy="46" r="0.8" fill="#fff" opacity="0.32"/><circle cx="182" cy="76" r="0.8" fill="#fff" opacity="0.46"/><circle cx="83" cy="107" r="0.8" fill="#fff" opacity="0.47"/><path d="M130 186 L420 156 L420 224 L130 194z" fill="#6cb6ff" opacity=".22"/><path d="M110 187 L20 170 L20 210 L110 193z" fill="#6cb6ff" opacity=".08"/><ellipse cx="120" cy="190" rx="58" ry="13" fill="#e39a2d" opacity=".85"/><circle cx="120" cy="190" r="15" fill="#000" stroke="#e39a2d"/><circle cx="330" cy="190" r="20" fill="#fff" opacity=".18"/><circle cx="330" cy="190" r="9" fill="#fff" opacity=".9"/><text x="120" y="232" fill="#e6edf3" font-size="13" text-anchor="middle">black hole + disk</text><text x="320" y="240" fill="#e6edf3" font-size="13" text-anchor="middle">flaring region in the jet</text><text x="320" y="256" fill="#8b98a5" font-size="11.5" text-anchor="middle">particles accelerated</text><polyline points="356,135.5 359,133.5 362,131.6 365,129.9 368,128.7 371,128.1 374,128.1 377,128.8 380,130.0 383,131.7 386,133.6 389,135.6 392,137.4 395,138.8 398,139.7 401,140.0 404,139.6 407,138.6 410,137.1 413,135.2 416,133.2 419,131.3 422,129.7 425,128.6 428,128.0 431,128.2 434,128.9 437,130.2 440,132.0 443,133.9 446,135.9 449,137.7 452,139.0 455,139.8 458,140.0 461,139.5 464,138.4 467,136.8 470,134.9 473,132.9 476,131.0 479,129.5 482,128.5 485,128.0 488,128.2 491,129.1 494,130.5 497,132.3 500,134.2 503,136.2 506,137.9 509,139.2 512,139.9 515,139.9 518,139.4 521,138.2 524,136.5 527,134.6 530,132.6 533,130.8 536,129.3 539,128.3 542,128.0 545,128.3 548,129.3 551,130.7 554,132.6 557,134.5 560,136.5 563,138.1 566,139.3 569,139.9 572,139.9 575,139.2 578,138.0 581,136.3 584,134.3 587,132.3 590,130.5 593,129.1 596,128.2 599,128.0 602,128.4 605,129.5 608,131.0 611,132.8 614,134.8 617,136.7 620,138.3 623,139.5" fill="none" stroke="#e39a2d" stroke-width="2"/><text x="621" y="124" fill="#e39a2d" font-size="12" text-anchor="end">radio</text><polyline points="356,164.9 359,167.3 362,168.0 365,166.5 368,163.7 371,161.1 374,160.0 377,161.1 380,163.7 383,166.5 386,168.0 389,167.3 392,164.8 395,161.9 398,160.2 401,160.4 404,162.6 407,165.6 410,167.7 413,167.8 416,165.9 419,163.0 422,160.6 425,160.1 428,161.6 431,164.5 434,167.1 437,168.0 440,166.8 443,164.1 446,161.3 449,160.0 452,160.8 455,163.3 458,166.2 461,167.9 464,167.5 467,165.2 470,162.3 473,160.3 476,160.3 479,162.3 482,165.2 485,167.5 488,167.9 491,166.2 494,163.4 497,160.8 500,160.0 503,161.3 506,164.1 509,166.8 512,168.0 515,167.1 518,164.5 521,161.7 524,160.1 527,160.6 530,163.0 533,165.9 536,167.8 539,167.7 542,165.6 545,162.7 548,160.4 551,160.1 554,161.9 557,164.8 560,167.3 563,168.0 566,166.5 569,163.8 572,161.1 575,160.0 578,161.0 581,163.7 584,166.5 587,168.0 590,167.3 593,164.9 596,162.0 599,160.2 602,160.4 605,162.6 608,165.5 611,167.6 614,167.8 617,165.9 620,163.0 623,160.6" fill="none" stroke="#e6edf3" stroke-width="2"/><text x="621" y="154" fill="#e6edf3" font-size="12" text-anchor="end">optical / X-ray</text><polyline points="356,196.9 359,192.8 362,191.4 365,195.7 368,196.3 371,191.9 374,192.1 377,196.5 380,195.4 383,191.2 386,193.1 389,196.9 392,194.3 395,191.0 398,194.2 401,197.0 404,193.2 407,191.2 410,195.3 413,196.5 416,192.2 419,191.8 422,196.2 425,195.8 428,191.4 431,192.7 434,196.8 437,194.7 440,191.0 443,193.8 446,197.0 449,193.6 452,191.1 455,195.0 458,196.7 461,192.5 464,191.6 467,196.0 470,196.1 473,191.6 476,192.4 479,196.7 482,195.1 485,191.1 488,193.4 491,197.0 494,194.0 497,191.0 500,194.6 503,196.9 506,192.9 509,191.3 512,195.6 515,196.3 518,191.9 521,192.1 524,196.5 527,195.5 530,191.3 533,193.1 536,196.9 539,194.4 542,191.0 545,194.2 548,197.0 551,193.2 554,191.2 557,195.3 560,196.6 563,192.2 566,191.8 569,196.2 572,195.8 575,191.4 578,192.7 581,196.8 584,194.8 587,191.0 590,193.8 593,197.0 596,193.6 599,191.1 602,194.9 605,196.8 608,192.5 611,191.5 614,195.9 617,196.1 620,191.7 623,192.3" fill="none" stroke="#c297ff" stroke-width="2"/><text x="621" y="184" fill="#c297ff" font-size="12" text-anchor="end"></text><text x="621" y="214" fill="#c297ff" font-size="12" text-anchor="end">γ-rays</text><polyline points="342,196 396,286 625,286" fill="none" stroke="#7ee787" stroke-width="2.2" stroke-dasharray="9 6"/><text x="621" y="306" fill="#7ee787" font-size="12.5" text-anchor="end">neutrino ν — passes straight through everything</text><circle cx="655" cy="190" r="22" fill="#1d4f7a" stroke="#6cb6ff"/><text x="655" y="232" fill="#e6edf3" font-size="13" text-anchor="middle">Earth</text><text x="24" y="36" fill="#e6edf3" font-size="17" font-weight="600">A jet pointed at us: many messengers</text><text x="24" y="58" fill="#8b98a5" font-size="13">Light at every wavelength and, sometimes, neutrinos arrive from the same flare.</text><rect x="24" y="322" width="672" height="60" rx="8" fill="#101a2b" stroke="#2c3947"/><text x="40" y="347" fill="#e6edf3" font-size="13.5">proton + light → pion → <tspan fill="#7ee787">neutrino</tspan> (+ <tspan fill="#c297ff">γ-rays</tspan>)</text><text x="40" y="368" fill="#8b98a5" font-size="12.5">VLBI images tell us <tspan fill="#e6edf3">where</tspan> in the jet · light curves tell us <tspan fill="#e6edf3">when</tspan> · neutrinos tell us <tspan fill="#e6edf3">protons</tspan> are accelerated</text></svg>